<svg xmlns="http://www.w3.org/2000/svg" viewBox="0 0 100 100" role="img" aria-label="json.asia 工具箱">
  <defs>
    <linearGradient id="bg" x1="12" y1="8" x2="88" y2="92" gradientUnits="userSpaceOnUse">
      <stop offset="0" stop-color="#0969da"/>
      <stop offset="0.55" stop-color="#2da44e"/>
      <stop offset="1" stop-color="#8250df"/>
    </linearGradient>
    <linearGradient id="panel" x1="26" y1="21" x2="76" y2="80" gradientUnits="userSpaceOnUse">
      <stop offset="0" stop-color="#ffffff"/>
      <stop offset="1" stop-color="#eef6ff"/>
    </linearGradient>
  </defs>
  <rect x="6" y="6" width="88" height="88" rx="22" fill="url(#bg)"/>
  <path d="M28 26h44a8 8 0 0 1 8 8v32a8 8 0 0 1-8 8H28a8 8 0 0 1-8-8V34a8 8 0 0 1 8-8Z" fill="url(#panel)" opacity="0.96"/>
  <path d="M33 40h14M33 50h22M33 60h14" stroke="#0969da" stroke-width="5" stroke-linecap="round"/>
  <path d="M64 39l8 8-8 8M72 55l-8 8" stroke="#2da44e" stroke-width="5" stroke-linecap="round" stroke-linejoin="round" fill="none"/>
</svg>
